<svg version="1.2" xmlns="http://www.w3.org/2000/svg" viewBox="0 0 256 256" width="120" height="120">
	<title>Xbox_buttons-svg</title>
	<style>
		.s0 { fill: #000000 } 
	</style>
	<filter id="f0">
		<feFlood flood-color="#ffffff" flood-opacity="1" />
		<feBlend mode="normal" in2="SourceGraphic"/>
		<feComposite in2="SourceAlpha" operator="in" />
	</filter>
	<g id="Layer" filter="url(#f0)">
		<g id="Layer">
			<g id="Layer">
				<g id="Layer">
					<path id="Layer" class="s0" d="m203.6 131.1h6.5c0.3 0 0.4-0.1 0.4-0.1 0 0 0-0.2 0-0.4l-3.7-9.9-3.6 9.9c-0.1 0.2-0.1 0.4 0 0.4 0.1 0 0.2 0.1 0.4 0.1z"/>
					<path id="Layer" fill-rule="evenodd" class="s0" d="m168.4 128c0-21.4 17.4-38.8 38.8-38.8 21.4 0 38.8 17.4 38.8 38.8 0 21.4-17.4 38.8-38.8 38.8-21.5 0-38.9-17.4-38.8-38.8zm17.8 20.7c0.5 0.8 1.4 1.2 2.5 1.2h4.1c1.8 0 3.7-1.3 4.4-3.1l1.8-4.9c0.2-0.7 1.2-1.4 2-1.4h11.8c0.8 0 1.8 0.7 2.1 1.4l1.9 5c0.7 1.8 2.6 3.1 4.5 3.1h4.3c1.1 0 2-0.4 2.5-1.2 0.5-0.8 0.6-1.8 0.2-2.8l-14.8-37.1c-0.7-1.7-2.6-3-4.5-3h-4.1c-1.9 0-3.8 1.4-4.5 3.1l-14.4 37.1c-0.4 0.9-0.3 2 0.2 2.6z"/>
					<path id="Layer" class="s0" d="m120.8 201.3h3.3c4.3 0 5.9-0.1 6.5-0.1 1.3-0.1 2.2-0.6 2.9-1.3 0.7-0.7 1-1.5 1-2.6 0-0.5-0.1-1-0.2-1.4-0.2-0.6-1.1-1.6-1.7-1.9-0.4-0.2-0.9-0.3-1.5-0.4-0.6-0.1-2.4-0.1-7.6-0.1h-2.6c-0.7 0-1.3 0.6-1.3 1.3v5.2c-0.1 0.7 0.5 1.3 1.2 1.3z"/>
					<path id="Layer" class="s0" d="m120.8 220.8h5.8c4 0 5.4-0.1 6-0.2 1.1-0.2 2-0.7 2.6-1.4q0.9-1 0.9-3c0-1.1-0.2-2-0.7-2.7-0.5-0.7-1.2-1.2-2.2-1.6-0.8-0.3-2.7-0.6-7.6-0.6h-4.7c-0.7 0-1.3 0.6-1.3 1.3v6.8c-0.1 0.8 0.5 1.4 1.2 1.4z"/>
					<path id="Layer" fill-rule="evenodd" class="s0" d="m89.2 207.2c0-21.4 17.4-38.8 38.8-38.8 21.4 0 38.8 17.4 38.8 38.8 0 21.4-17.4 38.8-38.8 38.8-21.4 0-38.8-17.4-38.8-38.8zm18.8 19.7c0 2.2 1.8 3.9 3.9 3.9h12.7q8.7 0 11.1-0.3c2.6-0.3 4.9-1.1 6.7-2.4 1.8-1.2 3.2-3 4.3-5.1 1.1-2.1 1.6-4.3 1.6-6.5 0-2.9-0.9-5.5-2.5-7.6-1.2-1.5-2.6-2.6-4.4-3.5-0.1 0-0.1 0-0.1 0 0-0.1 0.1-0.1 0.1-0.1 1.1-0.8 2-1.8 2.7-2.9 1.2-2 1.9-4.1 1.9-6.5 0-2.1-0.6-4.1-1.6-5.9-1-1.7-2.3-3.1-3.8-4.2-1.5-1-3.3-1.7-5.2-2-1.8-0.4-4.5-0.5-8.2-0.5h-15.4c-2.2 0-3.9 1.8-3.9 3.9z"/>
					<path id="Layer" fill-rule="evenodd" class="s0" d="m10 128c0-21.4 17.4-38.8 38.8-38.8 21.4 0 38.8 17.4 38.8 38.8 0 21.4-17.4 38.8-38.8 38.8-21.4 0-38.8-17.4-38.8-38.8zm20.3-18.2l12.6 20c0.6 1 1.1 2.7 1.1 3.8v12.7c0 2 1.7 3.7 3.7 3.7h3.6c2 0 3.7-1.7 3.7-3.7v-12.6c0-1 0.5-2.8 1.1-3.7l12.7-20.1c0.6-0.9 0.6-1.9 0.2-2.7-0.5-0.8-1.4-1.3-2.5-1.3h-4.8c-1.8 0-3.8 1.2-4.7 2.7l-7.2 12.3c-0.1 0.1-0.1 0.2-0.1 0.2 0-0.1-0.1-0.1-0.1-0.2l-7.3-12.3c-0.9-1.5-2.9-2.7-4.7-2.7h-5c-1.2 0-2.1 0.5-2.5 1.3-0.4 0.8-0.4 1.8 0.2 2.6z"/>
					<path id="Layer" fill-rule="evenodd" class="s0" d="m89.2 48.8c0-21.4 17.4-38.8 38.8-38.8 21.4 0 38.8 17.5 38.8 38.9 0 21.4-17.4 38.8-38.8 38.8-21.4 0-38.8-17.4-38.8-38.9zm19.6 20.8c0.4 0.8 1.3 1.3 2.4 1.3h5.2c1.8 0 3.8-1.1 4.8-2.6l6.6-10.3c0.1-0.1 0.2-0.2 0.2-0.2 0 0 0.1 0 0.2 0.2l6.6 10.3c1 1.5 3 2.6 4.8 2.6h5.3c1.1 0 2-0.5 2.4-1.3 0.4-0.8 0.3-1.8-0.3-2.7l-11.5-17.4c-0.4-0.6-0.4-1.9 0-2.6l10.3-16.1c0.6-0.9 0.7-1.9 0.3-2.7-0.5-0.8-1.4-1.3-2.5-1.3h-4.9c-1.7 0-3.8 1.2-4.7 2.7l-5.7 9.2c-0.1 0.1-0.2 0.2-0.2 0.2-0.1 0-0.1-0.1-0.2-0.2l-5.8-9.3c-1-1.5-3-2.6-4.8-2.6h-5c-1.1 0-2 0.5-2.4 1.3-0.4 0.8-0.3 1.8 0.3 2.7l10.3 15.8c0.5 0.7 0.5 1.9 0 2.6l-11.6 17.7c-0.6 0.9-0.7 1.9-0.1 2.7z"/>
				</g>
			</g>
			<g id="Layer">
			</g>
			<g id="Layer">
			</g>
			<g id="Layer">
			</g>
			<g id="Layer">
			</g>
			<g id="Layer">
			</g>
			<g id="Layer">
			</g>
			<g id="Layer">
			</g>
			<g id="Layer">
			</g>
			<g id="Layer">
			</g>
			<g id="Layer">
			</g>
			<g id="Layer">
			</g>
			<g id="Layer">
			</g>
			<g id="Layer">
			</g>
			<g id="Layer">
			</g>
			<g id="Layer">
			</g>
		</g>
	</g>
</svg>